<svg xmlns="http://www.w3.org/2000/svg" viewBox="0 0 1205.9 1205.4"><style>.st0{display:none}.st1{display:inline;fill:#fde3ec}.st2{opacity:.23;fill:#515151}.st3{opacity:.17;fill:#3f3f3f}.st4{opacity:.31;fill:#d6d6d6}.st5{fill:#3a3a3a}.st6{fill:#b7b7b7}.st7{fill:#a5a5a5}.st8{fill:#e5e5e5}.st9{fill:#919191}.st10{fill:#9e9e9e}.st11{fill:#dbdbdb}.st12{opacity:.8}.st13{fill:#686868}.st14{fill:#848484}.st15{fill:#b7b7b7}.st15,.st16{opacity:.66}.st17{fill:#a0a0a0}.st18{fill:#cecece}.st19{fill:#939393}.st20{fill:#adadad}</style><g id="Layer_6" class="st0"><path class="st1" d="M0 0h1205.4v1205.4H0z"/></g><g id="background"><path class="st2" d="M486 378.7c-2.5.2-4.3 2.4-4 4.9v.3l-23.5 16.9c.2.2.3.4.4.6l24.9-14.6c.8.6 1.9.9 3 .8 2.5-.2 4.3-2.4 4-4.9-.1-2.4-2.4-4.2-4.8-4z"/><path class="st2" d="M661 623l5-3.3 316.8-211.2 5-3.3 18-12 10.3-6.8c7-4.7 16.6-2.8 21.2 4.2L1203 639.1c.5.7.9 1.5 1.2 2.2.8-12.8 1.2-25.7 1.2-38.7C1205.4 269.8 935.5 0 602.7 0S0 269.8 0 602.7s269.8 602.7 602.7 602.7c315.2 0 573.9-242 600.4-550.4-1.1 1.7-2.5 3.2-4.2 4.3L842.8 896.6c-6.9 4.6-16.1 2.7-20.7-4.1L656.8 644.4c-4.7-7.1-2.8-16.7 4.2-21.4zm-189.6-18.1L251.1 754.6 54.8 465.8 275 316.3c4.4-3 10.5-1.9 13.5 2.6l185.4 272.8c2.9 4.3 1.8 10.2-2.5 13.2zm14.7-207.2l.2-.2c-9.4-.3-18.2 1.3-26.8 5.5.2 1.1.1 2.2-.5 3.2-1.3 2.4-4.2 3.2-6.6 2-2.4-1.3-3.2-4.2-2-6.6 1.3-2.4 4.2-3.2 6.6-2 .1.1.3.2.4.2l.1-.2c7.2-6.5 12.7-14.7 15.8-24.1 16.3-7.7 32.2-16.7 47.1-26.8l3.3-2 4.8 7.1-.6.4.5.8 1 1.6 3.4 5.5-3.4 2.1c-14.9 10-28.2 20.8-43.1 33.3h.6l-.8.2zm29.3 138.8c-5.5-8.2-3.8-19.3 4.2-24.7l443.5-295.6c7.8-5.2 18.4-2.5 23.7 5.5l.6.9L515.8 537l-.4-.5zm35.2-4.3l425.1-283.3 29.6 131.1-344.7 229.7-110-77.5z"/></g><path class="st3" d="M609.2 1037.4c4.5 12.7 19.8 17.7 30.9 10.1l583-379.1-12.9-17.9L851 889.7c-10.8 7.2-25.4 4.4-32.9-6.3L647.7 637.6 515.4 536.5l-57.1 32.3 15 20.7c4.5 6.2 2.9 14.9-3.5 19.1l-149.1 98.6-70.3 47.5L54.6 466.4l-20.4 51.5 22 32.4 6.1 9 34.2 50.3 137.2 202 134.6-91.5 94.4 25.6" id="shadow"/><g id="notebook"><path transform="rotate(-34.2 167.855 600.039)" class="st4" d="M149.8 425.5h36.1v349.1h-36.1z"/><ellipse transform="rotate(-34.2 78.514 477.561)" class="st5" cx="78.5" cy="477.6" rx="7.2" ry="7"/><ellipse transform="rotate(-34.2 107.553 520.295)" class="st5" cx="107.6" cy="520.3" rx="7.2" ry="7"/><ellipse transform="rotate(-34.2 136.123 562.339)" class="st5" cx="136.1" cy="562.4" rx="7.2" ry="7"/><ellipse transform="rotate(-34.2 165.588 603.774)" class="st5" cx="165.6" cy="603.8" rx="7.2" ry="7"/><ellipse transform="rotate(-34.2 222.729 687.861)" class="st5" cx="222.8" cy="687.9" rx="7.2" ry="7"/><ellipse transform="rotate(-34.2 194.159 645.818)" class="st5" cx="194.2" cy="645.9" rx="7.2" ry="7"/><ellipse transform="rotate(-34.2 251.3 729.905)" class="st5" cx="251.3" cy="730" rx="7.2" ry="7"/><path class="st6" d="M166 607.7l-15.4 10.5c-1.8 1.2-4.1.7-5.3-1-1.2-1.8-.7-4.1 1-5.3l15.4-10.5c1.8-1.2 4.1-.7 5.3 1 1.2 1.7.8 4.1-1 5.3z"/><path class="st7" d="M194.8 650.1l-15.4 10.5c-1.8 1.2-4.1.7-5.3-1-1.2-1.8-.7-4.1 1-5.3l15.4-10.5c1.8-1.2 4.1-.7 5.3 1 1.2 1.7.8 4.1-1 5.3zM223.4 692.1L208 702.6c-1.8 1.2-4.1.7-5.3-1-1.2-1.8-.7-4.1 1-5.3l15.4-10.5c1.8-1.2 4.1-.7 5.3 1 1.2 1.7.7 4.1-1 5.3zM253 733.5L237.6 744c-1.8 1.2-4.1.7-5.3-1-1.2-1.8-.7-4.1 1-5.3l15.4-10.5c1.8-1.2 4.1-.7 5.3 1 1.2 1.7.7 4.1-1 5.3zM137.7 566l-15.4 10.5c-1.8 1.2-4.1.7-5.3-1-1.2-1.8-.7-4.1 1-5.3l15.4-10.5c1.8-1.2 4.1-.7 5.3 1 1.2 1.7.7 4.1-1 5.3zM80 481.2l-15.4 10.5c-1.8 1.2-4.1.7-5.3-1-1.2-1.8-.7-4.1 1-5.3l15.4-10.5c1.8-1.2 4.1-.7 5.3 1 1.2 1.7.8 4.1-1 5.3zM109.1 523.9l-15.4 10.5c-1.8 1.2-4.1.7-5.3-1-1.2-1.8-.7-4.1 1-5.3l15.4-10.5c1.8-1.2 4.1-.7 5.3 1 1.2 1.8.7 4.1-1 5.3z"/><g><path transform="rotate(-34.2 193.76 408.794)" class="st8" d="M90 406.8h207.6v4H90z"/><path transform="rotate(-34.2 209.468 431.91)" class="st8" d="M105.7 429.9h207.6v4H105.7z"/><path transform="rotate(-34.2 225.177 455.026)" class="st8" d="M121.4 453.1H329v4H121.4z"/><path transform="rotate(-34.2 240.885 478.143)" class="st8" d="M137.1 476.2h207.6v4H137.1z"/><path transform="rotate(-34.2 256.593 501.258)" class="st8" d="M152.8 499.3h207.6v4H152.8z"/><path transform="rotate(-34.2 272.301 524.375)" class="st8" d="M168.5 522.4h207.6v4H168.5z"/><path transform="rotate(-34.2 288.01 547.49)" class="st8" d="M184.2 545.5h207.6v4H184.2z"/><path transform="rotate(-34.2 303.718 570.607)" class="st8" d="M199.9 568.7h207.6v4H199.9z"/><path transform="rotate(-34.2 319.426 593.723)" class="st8" d="M215.6 591.8h207.6v4H215.6z"/><path transform="rotate(-34.2 335.135 616.839)" class="st8" d="M231.3 614.9h207.6v4H231.3z"/></g><g><path class="st9" d="M137.8 478.9c.2-2.9.5-5.8.8-8.6.3-2.9.6-5.7.9-8.6.3-2.9.7-5.7 1-8.6.3-2.9.7-5.7 1.1-8.6l1-8 2.1 7.8c.3 1.1.6 2.1.9 3.1.3 1 .7 2.1 1.1 3 .4 1 .8 2 1.3 2.9.5.9 1 1.8 1.6 2.6.6.8 1.2 1.6 2 2.2.7.7 1.5 1.1 2.3 1.5.9.3 1.7.6 2.7.7H157.9c.5 0 .9-.1 1.4-.2 1.8-.4 3.6-1.5 5.1-2.8.8-.7 1.4-1.4 2-2.3.3-.4.6-.8.8-1.3.3-.5.5-.9.7-1.4 1.7-3.8 2.3-8.3 2.6-12.7l.1-1.3 1.1.6.8.4.9.3.9.2c.3 0 .6.1.9.1.6.1 1.2.1 1.9 0 .6 0 1.2-.1 1.9-.3l1.8-.6c.6-.2 1.2-.5 1.7-.8.6-.3 1.1-.7 1.6-1 .5-.4 1-.8 1.4-1.2.5-.5.9-1 1.3-1.4l1.2-1.5c.7-1.1 1.4-2.2 2-3.4 1.2-2.3 2.1-4.8 3-7.3l.3-.9.9.5.7.4.7.3.8.2c.3 0 .5.1.8.1.5.1 1.1.1 1.6.1s1.1-.1 1.6-.2c1.1-.2 2.1-.6 3.1-1.1.5-.3.9-.5 1.4-.8l.6-.5.6-.5.6-.6.5-.6c.4-.4.7-.9 1-1.3.6-.9 1.2-1.9 1.7-2.9 1-2 1.8-4.2 2.6-6.4l.6-1.7 1.8.8.9.4.9.3.9.3 1 .2 1 .1 1 .1h1l1-.1 1-.1 1-.2.9-.3.9-.3.9-.4.9-.5.8-.5.4-.3.2-.1.1-.1s.1-.1-.1 0l.8-.7.6-.6.6-.7.6-.8.5-.8.5-.9.4-.9.3-.9.3-.9.2-.9.1-.9.1-1v-1.9l-.1-.9-.2-.9 4.1-1.2c.4 1 1.2 1.8 2.4 2.2 1.2.4 2.6.5 3.9.2.2 0 .3-.1.5-.1h.1c-.1.1 0 0-.1 0h.1l.3-.1c.4-.2.6-.3.9-.5.6-.4 1.2-.8 1.8-1.3 1.1-1 2.1-2.2 3.1-3.6.5-.7.9-1.3 1.4-2.1.4-.7.9-1.4 1.3-2.2.8-1.5 1.6-3 2.3-4.5 1.4-3.1 2.5-6.3 3.4-9.6l.8-3 1.9 2.4c1.6 2 3.1 4 4.9 5.7.9.8 1.9 1.6 2.9 2.2.3.1.5.3.8.4.3.1.6.3.8.4.5.2 1.1.4 1.7.5 1.2.2 2.4.3 3.5.1 1.2-.2 2.3-.6 3.3-1.3.2-.2.5-.4.7-.6l.3-.3c.1-.1.2-.3.3-.4.3-.5.7-1 .9-1.6.5-1.1.6-2.4.4-3.6l.4-.1c.4 1.3.4 2.7 0 4-.2.7-.5 1.3-.8 1.9-.1.2-.2.3-.3.4l-.3.4c-.2.3-.5.5-.7.8-1.1.9-2.4 1.6-3.7 1.9-.7.2-1.4.3-2.1.3-.7 0-1.4 0-2.1-.1-.7-.1-1.4-.2-2.1-.5-.4-.1-.7-.2-1-.3-.4-.1-.6-.3-1-.4-1.3-.6-2.4-1.4-3.5-2.2-2.1-1.7-4-3.7-5.7-5.6l2.7-.6c-.7 3.5-1.7 7-3.1 10.3-.7 1.7-1.4 3.3-2.2 4.9-.4.8-.8 1.6-1.3 2.4-.4.7-.9 1.6-1.4 2.3-1 1.5-2.2 3.1-3.6 4.4-.7.7-1.5 1.3-2.4 1.8-.4.3-1 .6-1.4.7l-.3.1-.2.1-.2.1c-.3.1-.5.2-.8.3-2.1.6-4.4.5-6.4-.3-1-.4-2.1-1-2.9-1.8-.9-.8-1.6-1.8-2-3l4.1-1.2.2 1.2.2 1.3.1 1.3v1.3l-.1 1.2-.2 1.2-.3 1.2-.4 1.2-.5 1.2-.5 1.1-.6 1.1-.7 1-.8 1-.8.9-1 .9-.9.7-1.1.8-1.1.6-1.1.6-1.1.5-1.2.4-1.2.3-1.2.2-1.2.1-1.2.1h-1.2l-1.2-.1-1.2-.2-1.2-.3-1.2-.4-1.1-.5-1.1-.6 2.4-.9c-.9 2.2-1.9 4.5-3.2 6.6-.6 1.1-1.4 2.1-2.2 3.1-.4.5-.8 1-1.3 1.4l-.7.7-.7.6c-.6.5-1.1.8-1.6 1.1-.6.3-1.1.6-1.7.9-1.2.5-2.4.9-3.7 1.1-.6.1-1.3.1-1.9.1-.7 0-1.3-.1-1.9-.2-.3-.1-.6-.2-1-.2l-.9-.3-.9-.4-.8-.5 1.3-.4c-.5 1.2-1 2.4-1.6 3.7-.5 1.2-1.1 2.4-1.8 3.6-.6 1.2-1.3 2.3-2.1 3.5-.4.6-.8 1.1-1.2 1.6-.5.5-.9 1-1.4 1.5-.5.5-1 .9-1.6 1.4-.6.4-1.1.8-1.7 1.1-.6.3-1.2.7-1.9.9-.6.3-1.3.5-2 .7-.7.2-1.4.3-2.1.4-.7.1-1.4.1-2.1.1-.4 0-.7-.1-1.1-.1-.4-.1-.7-.1-1-.2l-1-.3-1-.4 1.2-.7c0 4.5-.1 9.1-1.8 13.6-.2.6-.5 1.2-.7 1.6-.3.6-.5 1.1-.9 1.6-.6 1-1.4 2-2.2 2.9-1.7 1.8-3.8 3.2-6.4 3.9-.6.2-1.3.3-1.9.4-.3 0-.7.1-1 .1h-1c-1.3-.1-2.6-.4-3.8-.9-1.2-.6-2.3-1.2-3.3-2.1-1-.8-1.8-1.8-2.5-2.8-.7-1-1.3-2-1.8-3.1s-1-2.2-1.4-3.2c-.8-2.2-1.4-4.4-1.9-6.6l3.1-.1c-.5 2.8-1 5.7-1.5 8.5s-1 5.7-1.6 8.5c-.5 2.8-1.1 5.7-1.7 8.5-.6 2.8-1.2 5.6-1.8 8.5l-.7-.4z"/></g><g><path class="st10" d="M139.6 498s2.4-2 6.7-5.4c2.1-1.7 4.7-3.8 7.7-6.2 3-2.4 6.4-5.1 10.1-8 3.7-2.9 7.7-6 12-9.3 4.3-3.3 8.8-6.7 13.5-10.2 4.7-3.5 9.6-7.1 14.6-10.8 5-3.7 10.1-7.3 15.2-11 5.1-3.6 10.2-7.3 15.3-10.8 5-3.6 10.1-7 15-10.3 4.9-3.2 9.7-6.3 14.3-9.1 2.3-1.4 4.5-2.8 6.7-4.1 2.2-1.3 4.3-2.5 6.3-3.7 4.1-2.4 7.8-4.5 11.2-6.4 1.7-.9 3.2-1.8 4.7-2.6s2.8-1.5 4-2.1c4.9-2.6 7.7-4 7.7-4l.3.4s-2.5 1.9-7 5.1c-2.3 1.6-5 3.5-8.1 5.7-3.1 2.2-6.7 4.6-10.6 7.3-3.9 2.6-8.1 5.5-12.6 8.5s-9.2 6.2-14.1 9.4-10 6.5-15.2 9.8c-5.2 3.3-10.4 6.8-15.6 10.3-5.2 3.5-10.4 7-15.5 10.5s-10.1 7-14.9 10.3c-9.6 6.8-18.6 13.1-26.2 18.6-3.8 2.7-7.3 5.3-10.4 7.6-3.1 2.3-5.8 4.2-8 5.9-4.4 3.3-6.9 5.1-6.9 5.1l-.2-.5z"/></g><g><path class="st10" d="M172.2 514.5l-.1-.1.1.1c-.1-.1-.2-.1-.2-.1-.1 0-.2.1-.3.1-.1.1-.1.2-.1.2 0 .1 0 0 .1-.1.9 1.1 2.3 1.6 3.7 1.5.7 0 1.4-.2 2-.4.3-.1.6-.3.9-.5.2-.1.3-.2.4-.3.1-.1.3-.2.4-.3 1-.9 1.8-2.1 2.5-3.4.3-.7.7-1.4 1-2.1.3-.8.6-1.5.8-2.2.3-.7.5-1.5.7-2.2.2-.7.4-1.5.6-2.2.4-1.5.6-3 .8-4.6.1-.8.2-1.5.2-2.3 0-.8.1-1.5.1-2.3V491c0-.8 0-1.6-.1-2.3l2.3 1.6c-.6.1-1.3.4-1.8.9-.6.5-1 1.3-1.2 2.1-.3.8-.3 1.7-.1 2.6.1.4.2.8.5 1.2l.2.3.2.3c.1.2.3.3.4.5 1.3 1.4 3.3 2.2 5.3 2.2 1 0 2-.1 2.9-.4 1-.3 1.9-.7 2.7-1.3 1.7-1.1 3.1-2.6 4.3-4.3.2-.2.3-.4.4-.6l.4-.6c.3-.5.6-.9.8-1.3.5-.9 1-1.8 1.4-2.8.4-.9.8-1.9 1.1-2.9.3-1 .6-1.9.8-2.9.5-2 .7-4 .8-5.9l.4-10.6 4.1 10.1c.2.4.4.7.6 1 .3.3.7.6 1.1.8.8.5 1.9.7 2.9.7.5 0 1-.1 1.5-.2l.3-.1s-.2.1-.1 0h.1l.2-.1.2-.1.2-.1.3-.2c1-.5 1.9-1.2 2.7-2.1.9-.9 1.6-1.9 2.4-2.9.4-.6.7-1.1 1.1-1.7l1.1-1.8c1.4-2.4 3-5.1 5.3-7.4l2.2-2.3 1.4 2.6c.3.5.6.9 1.2 1.3.3.2.6.3 1 .4.4.1.7.2 1.1.2h1.2c.4 0 .8-.1 1.2-.2.2 0 .4-.2.5-.2.2-.1.5-.2.7-.3.3-.2.7-.4 1.1-.7 1.4-1.1 2.6-2.6 3.7-4.3.3-.4.5-.9.8-1.3.3-.5.5-1 1-1.5.2-.2.6-.4.9-.5h.1v.1c.1 0 0 .1.1.1v-.1s.2-.1.3 0c.2 0 .4.1.5.2.3.2.5.5.6.8 0 .2.1.4 0 .6-.1.2-.2.3-.4.4l-.3-.4c.2-.2-.1-.5-.4-.7h-.3l-.3.3c-.2.3-.3.7-.5 1.2s-.3 1-.5 1.5c-.7 2-1.8 4-3.4 5.7-.4.4-.8.8-1.4 1.2-.3.2-.4.3-.7.5-.4.2-.6.3-.9.5-.6.3-1.2.5-1.8.7-.6.2-1.2.2-1.9.3-1.3.1-2.6-.1-3.9-.7-.6-.3-1.3-.6-1.8-1.1-.6-.5-1.1-1-1.5-1.7l3.6.4c-1.6 1.9-2.8 4.4-4.2 6.9-.3.6-.7 1.3-1.1 2-.3.6-.8 1.3-1.2 2-.8 1.3-1.8 2.6-3 3.8-1.2 1.2-2.6 2.2-4.2 3-.2.1-.4.2-.7.3l-.3.1-.3.1-.3.1H219.1l-.7.2c-.9.2-1.9.3-2.8.2-1.8-.1-3.7-.6-5.3-1.6-.8-.5-1.6-1.2-2.2-2-.6-.8-1.1-1.7-1.4-2.7l4.5-.5c-.1 1.2-.3 2.3-.5 3.4-.3 1.1-.5 2.2-.9 3.3-.7 2.2-1.7 4.3-2.9 6.2-.6 1-1.2 1.9-1.9 2.8-.4.5-.7.9-1.1 1.3l-.6.6-.6.6c-.8.8-1.6 1.6-2.5 2.3-.9.7-1.8 1.4-2.8 1.9-1 .5-2.1 1-3.2 1.3-1.1.3-2.3.4-3.4.4-1.2 0-2.3-.3-3.4-.6-1.1-.4-2.2-.9-3.1-1.8-.2-.2-.5-.4-.7-.7l-.3-.4-.2-.3c-.4-.5-.7-1.1-.9-1.7-.4-1.2-.6-2.5-.4-3.8.2-1.3.6-2.6 1.4-3.7.8-1.1 2-2.1 3.5-2.5l1.9-.5.4 2.1c.2.8.3 1.7.4 2.6.1.9.2 1.7.2 2.6 0 .9.1 1.7 0 2.6 0 .9-.1 1.7-.2 2.6-.1.9-.2 1.7-.4 2.6-.2.8-.4 1.7-.6 2.5-.2.8-.5 1.7-.8 2.5-.3.8-.6 1.6-1 2.4-.4.8-.8 1.6-1.1 2.3-.4.8-.8 1.5-1.3 2.3-1 1.5-2.2 2.9-3.8 4-.2.1-.4.3-.6.4-.2.1-.5.2-.6.3-.4.2-.9.4-1.4.5-1 .2-1.9.3-2.9.1-.9-.2-1.9-.5-2.7-1-.8-.5-1.4-1.3-1.8-2.2-.1-.2-.1-.3-.1-.5s.1-.4.2-.5c.2-.3.4-.4.6-.5.2-.1.4-.1.7-.1.1 0 .3.1.4.2.1.1.1.1.1.2v.1l-.1.7z"/></g><path class="st11" d="M320.7 707.2l-69.8 47.2.2.2 220.3-149.7c4.3-3 5.5-8.9 2.5-13.2l-15.6-22.9-189.2 124.4 51.6 14z"/></g><g class="st12" id="laptop"><path class="st13" d="M1023.4 371.6l-32.9-143.8c-1.8-7.8-10.8-11.6-17.3-7.2L518.3 523.8c-6.5 4.4-6.5 14.1 0 18.7l120.1 85.7c3.8 2.7 8.9 2.8 12.7.3l367.7-245.1c3.8-2.5 5.6-7.2 4.6-11.8zM657.6 609.7l-110-77.4L972.7 249l29.6 131.1-344.7 229.6z"/><path class="st14" d="M1098.4 726.3l-164 109.3-38-57c-4.7-7.1-2.8-16.6 4.3-21.3l140.9-93.9c5.7-3.8 13.4-2.3 17.2 3.4l39.6 59.5zM748.2 666.2l-20.1 13.4c-.8.6-2 .3-2.6-.5l-4-6c-.6-.8-.3-2 .5-2.6l20.1-13.4c.8-.6 2-.3 2.6.5l4 6c.6.9.3 2.1-.5 2.6zM775.1 648.3L755 661.7c-.8.6-2 .3-2.6-.5l-4-6c-.6-.8-.3-2 .5-2.6l20.1-13.4c.8-.6 2-.3 2.6.5l4 6c.6.9.4 2-.5 2.6zM802 630.4l-20.1 13.4c-.8.6-2 .3-2.6-.5l-4-6c-.6-.8-.3-2 .5-2.6l20.1-13.4c.8-.6 2-.3 2.6.5l4 6c.6.9.4 2-.5 2.6zM828.9 612.4l-20.1 13.4c-.8.6-2 .3-2.6-.5l-4-6c-.6-.8-.3-2 .5-2.6l20.1-13.4c.8-.6 2-.3 2.6.5l4 6c.6.9.4 2.1-.5 2.6zM855.9 594.5l-20.1 13.4c-.8.6-2 .3-2.6-.5l-4-6c-.6-.8-.3-2 .5-2.6l20.1-13.4c.8-.6 2-.3 2.6.5l4 6c.5.9.3 2-.5 2.6zM882.8 576.5l-20.1 13.4c-.8.6-2 .3-2.6-.5l-4-6c-.6-.8-.3-2 .5-2.6l20.1-13.4c.8-.6 2-.3 2.6.5l4 6c.5.9.3 2.1-.5 2.6zM909.7 558.6L889.6 572c-.8.6-2 .3-2.6-.5l-4-6c-.6-.8-.3-2 .5-2.6l20.1-13.4c.8-.6 2-.3 2.6.5l4 6c.6.9.3 2-.5 2.6zM1056.5 489.5l-35.6 23.7c-1.5 1-3.6.6-4.6-.9l-7.3-11c-1-1.5-.6-3.6.9-4.6l35.6-23.7c1.5-1 3.6-.6 4.6.9l7.3 11c1 1.6.6 3.6-.9 4.6zM936.6 540.7l-20.1 13.4c-.8.6-2 .3-2.6-.5l-4-6c-.6-.8-.3-2 .5-2.6l20.1-13.4c.8-.6 2-.3 2.6.5l4 6c.6.9.3 2-.5 2.6zM934.5 570.9L919.4 581c-1.6 1.1-3.8.6-4.9-1l-7.2-10.7c-1.1-1.6-.6-3.8 1-4.9l15.2-10.1c1.6-1.1 3.8-.6 4.9 1l7.2 10.7c1 1.6.6 3.8-1.1 4.9zM909.2 587.8L894 597.9c-1.6 1.1-3.8.6-4.9-1l-7.2-10.7c-1.1-1.6-.6-3.8 1-4.9l15.2-10.1c1.6-1.1 3.8-.6 4.9 1l7.2 10.7c1.1 1.6.7 3.8-1 4.9zM883.9 604.7l-15.2 10.1c-1.6 1.1-3.8.6-4.9-1l-7.2-10.7c-1.1-1.6-.6-3.8 1-4.9l15.2-10.1c1.6-1.1 3.8-.6 4.9 1l7.2 10.7c1.1 1.6.6 3.8-1 4.9zM858.6 621.5l-15.2 10.1c-1.6 1.1-3.8.6-4.9-1l-7.2-10.7c-1.1-1.6-.6-3.8 1-4.9l15.2-10.1c1.6-1.1 3.8-.6 4.9 1l7.2 10.7c1.1 1.7.6 3.9-1 4.9zM833.3 638.4l-15.2 10.1c-1.6 1.1-3.8.6-4.9-1l-7.2-10.7c-1.1-1.6-.6-3.8 1-4.9l15.2-10.1c1.6-1.1 3.8-.6 4.9 1l7.2 10.7c1 1.6.6 3.8-1 4.9zM808 655.3l-15.2 10.1c-1.6 1.1-3.8.6-4.9-1l-7.2-10.7c-1.1-1.6-.6-3.8 1-4.9l15.2-10.1c1.6-1.1 3.8-.6 4.9 1l7.2 10.7c1 1.6.6 3.8-1 4.9zM782.6 672.2l-15.2 10.1c-1.6 1.1-3.8.6-4.9-1l-7.2-10.7c-1.1-1.6-.6-3.8 1-4.9l15.2-10.1c1.6-1.1 3.8-.6 4.9 1l7.2 10.7c1.1 1.6.7 3.8-1 4.9zM757.3 689l-15.2 10.1c-1.6 1.1-3.8.6-4.9-1l-7.2-10.7c-1.1-1.6-.6-3.8 1-4.9l15.2-10.1c1.6-1.1 3.8-.6 4.9 1l7.2 10.7c1.1 1.7.7 3.8-1 4.9zM963.7 522.6L943.6 536c-.8.6-2 .3-2.6-.5l-4-6c-.6-.8-.3-2 .5-2.6l20.1-13.4c.8-.6 2-.3 2.6.5l4 6c.6.9.3 2-.5 2.6zM990.6 504.7l-20.1 13.4c-.8.6-2 .3-2.6-.5l-4-6c-.6-.8-.3-2 .5-2.6l20.1-13.4c.8-.6 2-.3 2.6.5l4 6c.6.9.3 2-.5 2.6zM1017.5 486.7l-20.1 13.4c-.8.6-2 .3-2.6-.5l-4-6c-.6-.8-.3-2 .5-2.6l20.1-13.4c.8-.6 2-.3 2.6.5l4 6c.6.9.4 2.1-.5 2.6zM1044.4 468.8l-20.1 13.4c-.8.6-2 .3-2.6-.5l-4-6c-.6-.8-.3-2 .5-2.6l20.1-13.4c.8-.6 2-.3 2.6.5l4 6c.6.9.4 2-.5 2.6zM1011 520l-15.2 10.1c-1.6 1.1-3.8.6-4.9-1l-7.2-10.7c-1.1-1.6-.6-3.8 1-4.9l15.2-10.1c1.6-1.1 3.8-.6 4.9 1l7.2 10.7c1 1.6.6 3.8-1 4.9zM985.7 536.8L970.5 547c-1.6 1.1-3.8.6-4.9-1l-7.2-10.7c-1.1-1.6-.6-3.8 1-4.9l15.2-10.1c1.6-1.1 3.8-.6 4.9 1l7.2 10.7c1 1.6.6 3.8-1 4.8zM960.3 553.7l-15.2 10.1c-1.6 1.1-3.8.6-4.9-1l-7.2-10.7c-1.1-1.6-.6-3.8 1-4.9l15.2-10.1c1.6-1.1 3.8-.6 4.9 1l7.2 10.7c1.1 1.6.7 3.8-1 4.9zM786.7 697.5l-31.9 21.3c-1.4 1-3.4.6-4.4-.9l-7.5-11.3c-1-1.4-.6-3.4.9-4.4l31.9-21.3c1.4-1 3.4-.6 4.4.9l7.5 11.3c.9 1.5.5 3.4-.9 4.4zM989.8 562.2l-15.2 10.1c-1.6 1.1-3.8.6-4.9-1l-7.2-10.7c-1.1-1.6-.6-3.8 1-4.9l15.2-10.1c1.6-1.1 3.8-.6 4.9 1l7.2 10.7c1 1.7.6 3.8-1 4.9zM964.4 579.1l-15.2 10.1c-1.6 1.1-3.8.6-4.9-1l-7.2-10.7c-1.1-1.6-.6-3.8 1-4.9l15.2-10.1c1.6-1.1 3.8-.6 4.9 1l7.2 10.7c1.1 1.6.7 3.8-1 4.9zM939.1 596l-15.2 10.1c-1.6 1.1-3.8.6-4.9-1l-7.2-10.7c-1.1-1.6-.6-3.8 1-4.9l15.2-10.1c1.6-1.1 3.8-.6 4.9 1l7.2 10.7c1.1 1.6.7 3.8-1 4.9zM913.8 612.9L898.6 623c-1.6 1.1-3.8.6-4.9-1l-7.2-10.7c-1.1-1.6-.6-3.8 1-4.9l15.2-10.1c1.6-1.1 3.8-.6 4.9 1l7.2 10.7c1.1 1.6.6 3.8-1 4.9zM888.5 629.7l-15.2 10.1c-1.6 1.1-3.8.6-4.9-1l-7.2-10.7c-1.1-1.6-.6-3.8 1-4.9l15.2-10.1c1.6-1.1 3.8-.6 4.9 1l7.2 10.7c1.1 1.6.6 3.8-1 4.9zM863.2 646.6L848 656.7c-1.6 1.1-3.8.6-4.9-1l-7.2-10.7c-1.1-1.6-.6-3.8 1-4.9l15.2-10.1c1.6-1.1 3.8-.6 4.9 1l7.2 10.7c1 1.6.6 3.8-1 4.9zM837.9 663.5l-15.2 10.1c-1.6 1.1-3.8.6-4.9-1l-7.2-10.7c-1.1-1.6-.6-3.8 1-4.9l15.2-10.1c1.6-1.1 3.8-.6 4.9 1l7.2 10.7c1 1.6.6 3.8-1 4.9zM812.5 680.3l-15.2 10.1c-1.6 1.1-3.8.6-4.9-1l-7.2-10.7c-1.1-1.6-.6-3.8 1-4.9l15.2-10.1c1.6-1.1 3.8-.6 4.9 1l7.2 10.7c1.1 1.7.7 3.9-1 4.9zM1040.9 528.2l-15.2 10.1c-1.6 1.1-3.8.6-4.9-1l-7.2-10.7c-1.1-1.6-.6-3.8 1-4.9l15.2-10.1c1.6-1.1 3.8-.6 4.9 1l7.2 10.7c1 1.6.6 3.8-1 4.9zM1015.6 545l-15.2 10.1c-1.6 1.1-3.8.6-4.9-1l-7.2-10.7c-1.1-1.6-.6-3.8 1-4.9l15.2-10.1c1.6-1.1 3.8-.6 4.9 1l7.2 10.7c1 1.7.6 3.9-1 4.9zM808.7 711.2l-40.5 27c-1.6 1.1-3.8.6-4.9-1l-7.1-10.6c-1.1-1.6-.6-3.8 1-4.9l40.5-27c1.6-1.1 3.8-.6 4.9 1l7.1 10.6c1.1 1.7.6 3.8-1 4.9zM1011.3 576.3l-15.2 10.1c-1.6 1.1-3.8.6-4.9-1l-7.2-10.7c-1.1-1.6-.6-3.8 1-4.9l15.2-10.1c1.6-1.1 3.8-.6 4.9 1l7.2 10.7c1 1.6.6 3.8-1 4.9zM986 593.2l-15.2 10.1c-1.6 1.1-3.8.6-4.9-1l-7.2-10.7c-1.1-1.6-.6-3.8 1-4.9l15.2-10.1c1.6-1.1 3.8-.6 4.9 1l7.2 10.7c1 1.6.6 3.8-1 4.9zM960.6 610l-15.2 10.1c-1.6 1.1-3.8.6-4.9-1l-7.2-10.7c-1.1-1.6-.6-3.8 1-4.9l15.2-10.1c1.6-1.1 3.8-.6 4.9 1l7.2 10.7c1.1 1.7.7 3.9-1 4.9zM935.3 626.9L920.1 637c-1.6 1.1-3.8.6-4.9-1l-7.2-10.7c-1.1-1.6-.6-3.8 1-4.9l15.2-10.1c1.6-1.1 3.8-.6 4.9 1l7.2 10.7c1.1 1.6.6 3.8-1 4.9zM910 643.8l-15.2 10.1c-1.6 1.1-3.8.6-4.9-1l-7.2-10.7c-1.1-1.6-.6-3.8 1-4.9l15.2-10.1c1.6-1.1 3.8-.6 4.9 1l7.2 10.7c1.1 1.6.6 3.8-1 4.9zM884.7 660.7l-15.2 10.1c-1.6 1.1-3.8.6-4.9-1l-7.2-10.7c-1.1-1.6-.6-3.8 1-4.9l15.2-10.1c1.6-1.1 3.8-.6 4.9 1l7.2 10.7c1 1.6.6 3.8-1 4.9zM859.4 677.5l-15.2 10.1c-1.6 1.1-3.8.6-4.9-1l-7.2-10.7c-1.1-1.6-.6-3.8 1-4.9l15.2-10.1c1.6-1.1 3.8-.6 4.9 1l7.2 10.7c1 1.7.6 3.9-1 4.9zM834.1 694.4l-15.2 10.1c-1.6 1.1-3.8.6-4.9-1l-7.2-10.7c-1.1-1.6-.6-3.8 1-4.9l15.2-10.1c1.6-1.1 3.8-.6 4.9 1l7.2 10.7c1 1.6.6 3.8-1 4.9zM1062.4 542.2l-15.2 10.1c-1.6 1.1-3.8.6-4.9-1l-7.2-10.7c-1.1-1.6-.6-3.8 1-4.9l15.2-10.1c1.6-1.1 3.8-.6 4.9 1l7.2 10.7c1 1.7.6 3.8-1 4.9zM1037.1 559.1l-15.2 10.1c-1.6 1.1-3.8.6-4.9-1l-7.2-10.7c-1.1-1.6-.6-3.8 1-4.9l15.2-10.1c1.6-1.1 3.8-.6 4.9 1l7.2 10.7c1 1.6.6 3.8-1 4.9zM805.3 741.9l-24.7 16.4c-1.3.9-3 .5-3.9-.8l-7.9-11.8c-.9-1.3-.5-3 .8-3.9l24.7-16.4c1.3-.9 3-.5 3.9.8l7.9 11.8c.9 1.3.5 3-.8 3.9zM1007 607.6l-15.2 10.1c-1.6 1.1-3.8.6-4.9-1l-7.2-10.7c-1.1-1.6-.6-3.8 1-4.9l15.2-10.1c1.6-1.1 3.8-.6 4.9 1l7.2 10.7c1 1.6.6 3.8-1 4.9zM981.7 624.4l-15.2 10.1c-1.6 1.1-3.8.6-4.9-1l-7.2-10.7c-1.1-1.6-.6-3.8 1-4.9l15.2-10.1c1.6-1.1 3.8-.6 4.9 1l7.2 10.7c1 1.7.6 3.9-1 4.9zM956.3 641.3l-15.2 10.1c-1.6 1.1-3.8.6-4.9-1l-7.2-10.7c-1.1-1.6-.6-3.8 1-4.9l15.2-10.1c1.6-1.1 3.8-.6 4.9 1l7.2 10.7c1.1 1.6.7 3.8-1 4.9zM931 658.2l-15.2 10.1c-1.6 1.1-3.8.6-4.9-1l-7.2-10.7c-1.1-1.6-.6-3.8 1-4.9l15.2-10.1c1.6-1.1 3.8-.6 4.9 1l7.2 10.7c1.1 1.6.7 3.8-1 4.9zM905.7 675.1l-15.2 10.1c-1.6 1.1-3.8.6-4.9-1l-7.2-10.7c-1.1-1.6-.6-3.8 1-4.9l15.2-10.1c1.6-1.1 3.8-.6 4.9 1l7.2 10.7c1.1 1.6.6 3.8-1 4.9zM880.4 691.9L865.2 702c-1.6 1.1-3.8.6-4.9-1l-7.2-10.7c-1.1-1.6-.6-3.8 1-4.9l15.2-10.1c1.6-1.1 3.8-.6 4.9 1l7.2 10.7c1.1 1.7.6 3.9-1 4.9zM855.1 708.8l-15.2 10.1c-1.6 1.1-3.8.6-4.9-1l-7.2-10.7c-1.1-1.6-.6-3.8 1-4.9l15.2-10.1c1.6-1.1 3.8-.6 4.9 1l7.2 10.7c1 1.6.6 3.8-1 4.9zM829.8 725.7l-15.2 10.1c-1.6 1.1-3.8.6-4.9-1l-7.2-10.7c-1.1-1.6-.6-3.8 1-4.9l15.2-10.1c1.6-1.1 3.8-.6 4.9 1l7.2 10.7c1 1.6.6 3.8-1 4.9zM1095.6 548.5l-52.3 34.8c-1.6 1.1-3.8.6-4.8-1l-7.2-10.8c-1.1-1.6-.6-3.8 1-4.8l52.3-34.8c1.6-1.1 3.8-.6 4.8 1l7.2 10.8c1 1.6.6 3.7-1 4.8zM1032.8 590.4l-15.2 10.1c-1.6 1.1-3.8.6-4.9-1l-7.2-10.7c-1.1-1.6-.6-3.8 1-4.9l15.2-10.1c1.6-1.1 3.8-.6 4.9 1l7.2 10.7c1 1.6.6 3.8-1 4.9zM857.5 735.8l-18.6 12.4c-1.8 1.2-4.2.7-5.3-1.1l-6.8-10.2c-1.2-1.8-.7-4.2 1.1-5.3l18.6-12.4c1.8-1.2 4.2-.7 5.3 1.1l6.8 10.2c1.1 1.7.6 4.1-1.1 5.3zM807.4 769.2l-13.1 8.7c-1.5 1-3.6.6-4.6-.9l-7.4-11.1c-1-1.5-.6-3.6.9-4.6l13.1-8.7c1.5-1 3.6-.6 4.6.9l7.4 11.1c1 1.5.6 3.5-.9 4.6zM983.2 652.5l-112.6 75.1c-2.7 1.8-6.3 1.1-8.1-1.6l-4.6-6.9c-1.8-2.7-1.1-6.3 1.6-8.1l112.6-75.1c2.7-1.8 6.3-1.1 8.1 1.6l4.6 6.9c1.8 2.7 1.1 6.3-1.6 8.1zM994.1 645.3l18.6-12.4c1.8-1.2 2.2-3.6 1.1-5.3l-6.8-10.2c-1.2-1.8-3.6-2.2-5.3-1.1L983 628.6c-1.8 1.2-2.2 3.6-1.1 5.3l6.8 10.2c1.2 1.9 3.6 2.3 5.4 1.2zM1061.7 599.2l-18.6 12.4c-.8.5-1.9.3-2.5-.5l-4.1-6.1c-.5-.8-.3-1.9.5-2.5l18.6-12.4c.8-.5 1.9-.3 2.5.5l4.1 6.1c.6.9.3 2-.5 2.5zM1086.2 582.9l-17.5 11.7c-1.1.7-2.6.4-3.3-.7l-8.5-12.7c-.7-1.1-.4-2.6.7-3.3l17.5-11.7c1.1-.7 2.6-.4 3.3.7l8.5 12.7c.7 1.1.4 2.6-.7 3.3zM1111.7 565.9l-18.6 12.4c-.8.5-1.9.3-2.5-.5l-4.1-6.1c-.5-.8-.3-1.9.5-2.5l18.6-12.4c.8-.5 1.9-.3 2.5.5l4.1 6.1c.6.9.3 2-.5 2.5zM829.3 754.5l-13.1 8.7c-1.5 1-3.6.6-4.6-.9l-7.4-11.1c-1-1.5-.6-3.6.9-4.6l13.1-8.7c1.5-1 3.6-.6 4.6.9l7.4 11.1c1.1 1.6.7 3.6-.9 4.6zM1035.9 617.4l-13.1 8.7c-1.5 1-3.6.6-4.6-.9l-7.4-11.1c-1-1.5-.6-3.6.9-4.6l13.1-8.7c1.5-1 3.6-.6 4.6.9l7.4 11.1c1 1.5.6 3.6-.9 4.6zM1061.3 490.7l-20.2 13.4c-1.3.9-1.8 2.4-1.1 3.4l8.5 12.7c.7 1 2.3 1.2 3.6.3l6.5-4.4c1.3-.9 2.9-.7 3.6.3l10.7 16.1c.7 1 2.3 1.2 3.6.3l6.5-4.4c1.3-.9 1.8-2.4 1.1-3.4l-22.8-34.3z"/><path transform="rotate(-33.685 917.935 623.569)" class="st15" d="M689.2 537.1h457.3V710H689.2z"/><g class="st16"><circle class="st17" cx="711" cy="617.1" r="7"/><path class="st17" d="M711 627.4c-.7 0-1.4-.1-2-.2-2.7-.5-5-2.1-6.5-4.4-1.5-2.3-2.1-5-1.5-7.7s2.1-5 4.4-6.5c2.3-1.5 5-2.1 7.7-1.5 2.7.5 5 2.1 6.5 4.4 3.1 4.7 1.9 11.1-2.8 14.2-1.9 1.1-3.8 1.7-5.8 1.7zm0-14c-.7 0-1.4.2-2.1.6-1.7 1.1-2.2 3.5-1 5.2.6.8 1.4 1.4 2.4 1.6 1 .2 2 0 2.8-.6 1.7-1.1 2.2-3.5 1-5.2-.6-.8-1.4-1.4-2.4-1.6h-.7z"/></g><g class="st16"><circle class="st10" cx="687" cy="634.1" r="7"/><path class="st10" d="M687 644.4c-.7 0-1.4-.1-2-.2-2.7-.5-5-2.1-6.5-4.4-1.5-2.3-2.1-5-1.5-7.7s2.1-5 4.4-6.5c2.3-1.5 5-2.1 7.7-1.5 2.7.5 5 2.1 6.5 4.4 3.1 4.7 1.9 11.1-2.8 14.2-1.9 1.1-3.8 1.7-5.8 1.7zm0-14c-.7 0-1.4.2-2.1.6-1.7 1.1-2.2 3.5-1 5.2.6.8 1.4 1.4 2.4 1.6 1 .2 2 0 2.8-.6 1.7-1.1 2.2-3.5 1-5.2-.6-.8-1.4-1.4-2.4-1.6h-.7z"/></g></g><g id="pen"><path class="st18" d="M488.9 384.3l.8 1.4c.5-.8.8-1.8.7-2.9-.2-2.5-2.4-4.3-4.9-4-2.5.2-4.3 2.4-4 4.9v.3L458 400.9c.2.2.3.4.4.6l24.9-14.6 1.2.6c1.4-1 2.9-2 4.3-2.9l.1-.3z"/><path class="st18" d="M705.5 227.3c-4.3-5.5-12-6.7-17.7-2.8L605.6 275c-21.5 13.2-42.3 27.3-62.6 42.3l-66.5 49.3 1.8 2.7c-14.9 10.1-30.8 19.1-47.1 26.8-3.1 9.4-8.6 17.6-15.8 24.1l-.1.2c-.1-.1-.3-.2-.4-.2-2.4-1.3-5.3-.4-6.6 2-1.3 2.4-.4 5.3 2 6.6 2.4 1.3 5.3.4 6.6-2 .6-1 .7-2.2.5-3.2 8.8-4.2 19.3-6.1 28.9-5.7l.8-.1c6.8-6.4 13.8-12.5 21.1-18.3-3.1.9-6.2 2-9.2 3.5.2 1.1.1 2.2-.5 3.2-1.3 2.4-4.2 3.2-6.6 2-2.4-1.3-3.2-4.2-2-6.6 1.3-2.4 4.2-3.2 6.6-2 .1.1.3.2.4.2l.1-.2c7.2-6.5 12.7-14.7 15.8-24.1 16.3-7.7 32.2-16.7 47.1-26.8l3.3-2 4.8 7.1-.6.4.5.8 1 1.6 3.1 4.9 28.9-17.6c21.6-13.1 42.4-27.1 62.7-42l77.7-57.1c5.9-3.9 7.6-11.5 4.2-17.5zM444.8 408.2c-1.1.1-2.1-.2-3-.8L416.9 422c-.1-.2-.3-.4-.4-.6l23.5-16.9v-.3c-.2-2.5 1.6-4.7 4-4.9 2.5-.2 4.7 1.6 4.9 4 .1 2.5-1.7 4.7-4.1 4.9z"/><g><path class="st19" d="M585.2 295.8l-66.5 49.3 6.9 10.2 6.9 10.2 70.7-43.1c21.6-13.1 42.4-27.1 62.8-42.1l77.7-57.1c5.7-3.9 7.5-11.4 4-17.4-4.3-5.5-12-6.7-17.7-2.8l-82.1 50.5c-21.6 13.2-42.4 27.3-62.7 42.3z"/><path class="st20" d="M585.2 295.8l-66.5 49.3 6.9 10.2 6.9 10.2 70.7-43.1c21.6-13.1 42.4-27.1 62.8-42.1l77.7-57.1c5.7-3.9 7.5-11.4 4-17.4-4.3-5.5-12-6.7-17.7-2.8l-82.1 50.5c-21.6 13.2-42.4 27.3-62.7 42.3z"/></g></g></svg>